<?xml version="1.0" standalone="no"?>
<!DOCTYPE svg PUBLIC "-//W3C//DTD SVG 20010904//EN"
 "http://www.w3.org/TR/2001/REC-SVG-20010904/DTD/svg10.dtd">
<svg version="1.0" xmlns="http://www.w3.org/2000/svg"
 width="500.000000pt" height="500.000000pt" viewBox="0 0 500.000000 500.000000"
 preserveAspectRatio="xMidYMid meet">
<metadata>
Created by potrace 1.14, written by Peter Selinger 2001-2017
</metadata>
<g transform="translate(0.000000,500.000000) scale(0.100000,-0.100000)"
fill="#000000" stroke="none">
<path d="M2276 4918 c-109 -14 -141 -18 -196 -27 -87 -14 -122 -21 -165 -33
-22 -7 -42 -12 -45 -13 -3 -1 -25 -7 -50 -14 -104 -29 -288 -99 -370 -140
-139 -71 -326 -181 -373 -221 -24 -20 -56 -45 -83 -65 -96 -70 -296 -271 -392
-395 -46 -58 -86 -110 -90 -115 -5 -6 -24 -35 -43 -66 -19 -30 -40 -64 -46
-75 -7 -10 -29 -50 -49 -89 -20 -38 -40 -71 -45 -73 -5 -2 -9 -8 -9 -13 0 -5
-20 -56 -44 -113 -90 -209 -157 -452 -182 -661 -10 -75 -10 -501 -1 -575 7
-50 15 -95 37 -205 5 -22 11 -56 15 -75 15 -82 111 -345 170 -468 35 -73 65
-136 66 -140 2 -4 11 -16 21 -26 10 -11 18 -23 18 -28 0 -4 25 -44 55 -89 30
-45 55 -84 55 -86 0 -5 78 -101 107 -131 7 -7 13 -17 13 -21 0 -10 212 -223
267 -267 26 -22 50 -42 53 -46 8 -10 141 -107 173 -126 15 -9 27 -20 27 -24 0
-4 4 -8 10 -8 5 0 39 -18 75 -40 210 -128 550 -261 755 -295 19 -3 58 -10 85
-15 59 -11 140 -21 210 -26 74 -5 356 -5 385 0 14 3 52 7 85 11 52 5 87 10
205 32 49 8 206 53 290 82 192 67 370 155 529 260 46 31 91 61 99 66 9 6 21
15 27 20 7 6 27 21 45 35 92 69 298 267 365 350 98 122 241 330 227 330 -4 0
-2 4 3 8 6 4 16 18 24 32 28 47 118 235 126 259 4 13 14 40 23 60 9 20 17 41
18 46 2 6 19 60 38 120 19 61 36 124 39 140 10 58 26 130 31 145 5 15 10 49
23 180 15 146 9 402 -13 579 -12 102 -90 402 -123 476 -5 11 -19 45 -31 75
-90 226 -244 478 -407 667 -58 67 -204 214 -253 254 -209 171 -323 245 -532
347 -88 43 -205 93 -228 97 -3 1 -41 13 -86 27 -83 27 -178 53 -227 62 -15 3
-55 10 -90 17 -34 6 -71 13 -82 14 -11 1 -47 5 -80 10 -77 10 -383 12 -459 3z
m454 -42 c55 -5 153 -20 200 -31 14 -3 48 -10 75 -15 83 -17 224 -59 325 -97
103 -39 345 -156 371 -179 8 -8 20 -14 26 -14 5 0 23 -11 38 -24 15 -13 40
-30 54 -38 29 -15 23 -10 151 -113 208 -167 381 -359 524 -582 138 -214 264
-523 312 -763 3 -14 7 -32 9 -40 21 -72 40 -292 40 -465 -1 -194 -15 -346 -44
-480 -55 -244 -103 -380 -208 -590 -43 -87 -169 -292 -215 -350 -170 -217
-366 -403 -563 -535 -44 -30 -82 -57 -85 -60 -14 -15 -234 -129 -314 -162 -73
-31 -259 -100 -264 -99 -4 2 -57 -11 -82 -20 -14 -4 -36 -10 -50 -13 -14 -2
-36 -7 -50 -10 -28 -7 -67 -13 -125 -22 -22 -3 -51 -8 -65 -10 -71 -12 -180
-18 -315 -17 -139 1 -195 4 -285 18 -19 2 -55 7 -80 10 -25 3 -54 8 -65 10
-11 3 -31 7 -45 9 -92 18 -317 86 -397 121 -18 8 -50 22 -70 32 -144 63 -373
192 -381 214 -2 5 -8 9 -12 9 -12 0 -127 86 -198 148 -64 55 -231 224 -264
266 -13 16 -35 43 -49 60 -211 255 -402 662 -463 987 -8 47 -25 145 -30 179
-8 49 -19 233 -19 305 0 62 12 276 18 304 2 9 6 42 10 72 5 43 72 316 88 364
2 6 7 24 12 40 4 17 11 35 14 40 4 6 20 44 37 85 26 68 54 125 125 260 23 45
137 221 148 230 3 3 26 32 50 65 114 154 339 367 511 485 36 24 67 47 70 50
15 18 260 146 370 193 131 55 327 116 435 134 41 7 60 11 60 13 0 1 9 3 20 4
11 2 56 8 100 15 44 6 94 12 110 13 48 5 375 0 435 -6z"/>
<path d="M2335 4848 c-167 -11 -243 -22 -390 -58 -49 -12 -97 -23 -105 -25
-26 -5 -212 -72 -265 -94 -185 -80 -417 -220 -569 -345 -120 -99 -309 -297
-392 -411 -8 -11 -24 -33 -37 -50 -21 -28 -76 -112 -104 -160 -25 -42 -150
-301 -162 -335 -7 -19 -17 -44 -21 -55 -21 -52 -65 -197 -76 -249 -25 -116
-33 -163 -53 -321 -10 -74 -8 -436 3 -495 4 -19 14 -78 22 -130 90 -567 422
-1113 890 -1466 47 -35 89 -64 94 -64 4 0 10 -3 12 -7 4 -11 86 -63 98 -63 5
0 10 -4 10 -8 0 -15 375 -194 431 -207 9 -2 52 -15 95 -28 67 -21 141 -38 264
-62 39 -8 100 -16 175 -25 68 -8 441 -5 500 3 165 24 289 51 430 93 66 20 125
40 130 44 6 4 36 17 67 28 133 49 461 238 543 313 11 10 40 35 65 55 340 276
614 696 744 1141 26 89 34 120 41 173 2 14 4 25 5 25 2 0 6 21 16 85 4 25 9
52 10 60 24 115 23 496 -1 621 -3 13 -11 62 -20 109 -21 122 -26 143 -69 285
-50 168 -167 414 -278 580 -40 61 -77 115 -83 121 -5 7 -26 31 -45 55 -219
271 -476 477 -785 629 -192 95 -416 173 -561 196 -21 3 -42 8 -45 10 -11 6
-242 32 -314 34 -138 5 -171 5 -270 -2z m76 -139 c28 -44 52 -79 53 -79 2 0 2
35 2 78 -1 77 -1 77 27 80 30 4 27 22 30 -170 2 -102 -4 -114 -45 -99 -14 5
-88 104 -88 118 0 2 -7 11 -15 20 -14 13 -15 6 -13 -61 2 -42 1 -77 -2 -77
-25 -7 -50 -4 -51 5 -4 43 -6 252 -3 257 2 4 15 7 29 7 21 0 35 -15 76 -79z
m371 48 c11 -17 -11 -49 -30 -43 -9 3 -35 6 -57 8 -38 3 -40 2 -40 -26 0 -28
3 -30 41 -32 51 -2 64 -9 64 -35 0 -17 -7 -19 -58 -19 l-59 0 -2 -46 c-2 -57
-4 -62 -33 -60 -23 1 -23 3 -21 106 1 58 5 120 8 138 l6 32 87 -6 c48 -4 90
-11 94 -17z m-546 -22 c2 -16 10 -74 17 -128 l14 -99 -25 -9 c-34 -13 -39 -5
-47 66 -4 33 -11 89 -15 124 -5 36 -7 68 -5 71 2 4 16 7 31 6 22 -1 27 -6 30
-31z m795 -26 c39 -28 52 -54 52 -109 0 -116 -100 -182 -197 -130 -70 38 -87
114 -45 196 36 71 124 90 190 43z m-1013 -98 c17 -66 32 -126 32 -134 0 -8
-11 -17 -25 -19 -21 -4 -26 -1 -31 21 -8 34 -36 121 -39 121 -1 0 -1 -35 0
-77 2 -80 -4 -93 -40 -93 -15 0 -29 19 -55 70 -19 39 -39 70 -43 70 -5 0 -5
-6 0 -12 6 -7 16 -42 23 -76 11 -54 11 -65 -1 -73 -31 -19 -41 -10 -54 48 -7
33 -42 158 -49 174 -9 20 11 37 51 45 28 6 32 2 64 -53 19 -32 37 -65 41 -73
8 -18 10 8 8 91 -1 60 7 74 50 82 14 2 27 5 30 6 3 0 20 -53 38 -118z m1213
44 c122 -43 144 -67 126 -137 -5 -19 -17 -30 -43 -38 -26 -9 -34 -16 -29 -28
11 -29 26 -105 21 -109 -3 -3 -17 -1 -33 4 -24 8 -30 19 -44 73 -25 93 -54
100 -78 20 -10 -36 -15 -40 -34 -34 -38 11 -39 20 -14 80 13 33 34 87 47 122
12 34 26 62 30 62 4 0 27 -7 51 -15z m-1562 -61 c1 -6 -26 -23 -59 -38 -59
-27 -76 -51 -44 -63 8 -3 38 5 65 17 48 23 49 23 64 4 8 -10 14 -21 14 -24 0
-3 -27 -17 -59 -32 -59 -26 -60 -28 -48 -53 13 -29 15 -29 96 6 46 20 54 21
62 9 6 -8 10 -20 10 -25 0 -11 -159 -85 -182 -85 -11 0 -49 74 -105 208 l-14
33 68 29 c38 16 79 36 93 43 21 11 26 11 32 -2 4 -9 7 -21 7 -27z m1861 -83
c0 -9 -9 -48 -19 -86 l-19 -69 47 50 c77 80 75 79 115 54 l35 -21 -35 -62
c-19 -34 -47 -86 -62 -114 -26 -53 -46 -65 -70 -41 -9 9 -3 29 29 87 l40 76
-61 -67 c-58 -63 -63 -66 -87 -55 -28 12 -28 28 1 120 20 62 8 60 -25 -5 -33
-64 -52 -79 -75 -56 -15 15 -13 21 26 89 23 41 53 93 66 116 l24 42 35 -20
c19 -12 35 -29 35 -38z m-2095 -12 c4 -11 5 -22 3 -23 -1 -1 -15 -10 -30 -19
l-27 -17 54 -92 55 -93 -23 -17 c-21 -17 -23 -17 -42 7 -11 13 -29 41 -40 62
-11 21 -29 52 -40 70 -19 30 -20 31 -48 16 -16 -8 -35 -12 -43 -9 -20 8 -17
43 4 50 9 3 24 10 32 15 51 34 117 71 127 71 6 0 15 -9 18 -21z m1264 -53 c13
-3 49 -8 80 -11 31 -4 108 -19 172 -35 511 -128 932 -438 1203 -887 102 -171
226 -495 241 -632 2 -21 16 -110 22 -141 9 -50 11 -347 2 -415 -36 -285 -74
-418 -192 -667 -28 -60 -54 -108 -58 -108 -4 0 -11 -9 -14 -21 -20 -61 -172
-257 -294 -379 -131 -130 -158 -152 -296 -245 -203 -135 -446 -241 -645 -280
-14 -3 -36 -7 -50 -11 -14 -3 -36 -7 -50 -9 -144 -21 -214 -26 -329 -27 -126
0 -181 3 -286 19 -22 3 -49 7 -60 9 -11 1 -20 3 -20 4 0 1 -9 3 -20 4 -39 6
-190 45 -220 57 -16 7 -32 13 -35 14 -79 19 -391 172 -420 205 -3 3 -24 18
-48 33 -49 32 -59 40 -161 127 -87 74 -137 124 -201 200 -25 30 -52 61 -60 70
-8 9 -19 24 -25 32 -5 8 -33 49 -62 91 -102 151 -177 305 -233 482 -41 129
-60 223 -85 405 -5 33 -5 337 0 375 2 17 6 44 9 61 3 18 8 50 11 73 7 59 30
153 64 261 128 419 406 787 780 1034 162 107 369 205 512 241 35 9 75 20 89
25 14 5 39 12 55 15 64 11 173 26 230 32 33 3 61 6 63 8 5 4 306 -4 331 -9z
m-1485 -114 c15 -18 15 -20 -3 -36 -11 -10 -24 -15 -30 -12 -17 11 -61 -5 -72
-25 -15 -28 14 -35 59 -15 74 32 117 26 144 -22 33 -58 -25 -141 -104 -148
-53 -6 -89 16 -71 44 8 12 21 16 51 14 44 -3 72 16 72 50 0 18 -4 20 -32 14
-17 -3 -43 -12 -58 -19 -55 -28 -120 6 -120 63 0 73 120 140 164 92z m2643
-96 c-11 -39 -28 -100 -37 -136 -18 -67 -30 -80 -56 -59 -11 9 -14 23 -10 49
5 29 2 39 -16 50 -12 8 -29 22 -38 31 -16 15 -19 15 -41 -2 -21 -16 -26 -16
-52 -2 -37 19 -34 22 108 106 107 64 110 65 136 50 l27 -16 -21 -71z m-2797
-126 l93 -100 -24 -21 -23 -20 -92 98 -92 98 21 23 c11 12 21 22 23 22 1 0 43
-45 94 -100z m3012 20 c36 -36 40 -44 35 -76 -8 -47 -12 -50 -42 -34 -19 10
-23 19 -19 36 6 22 -24 64 -45 64 -23 0 -20 -24 8 -74 37 -64 38 -86 9 -121
-46 -52 -122 -34 -168 40 -19 31 -20 39 -10 70 17 52 59 44 58 -11 -1 -17 2
-37 7 -43 11 -19 48 -30 62 -19 14 11 8 30 -25 78 -43 64 -15 129 57 130 26 0
42 -9 73 -40z m-3148 -50 c15 -12 15 -14 -1 -32 -10 -11 -25 -17 -36 -14 -26
6 -74 -41 -58 -57 8 -8 27 -3 74 21 70 36 100 34 131 -10 30 -43 18 -88 -37
-139 -37 -33 -90 -39 -118 -13 -16 14 -16 17 -2 34 12 13 25 17 48 13 26 -4
36 -1 49 18 21 31 21 59 -1 59 -10 0 -36 -12 -58 -25 -50 -31 -97 -32 -125 -3
-28 30 -25 68 8 111 38 51 91 67 126 37z m3296 -112 c0 -11 -4 -15 -95 -93
-38 -33 -76 -66 -83 -72 -20 -19 -31 -16 -44 12 -11 24 -8 28 27 58 22 18 67
55 100 84 56 48 61 50 78 36 9 -9 17 -20 17 -25z m-3725 -593 c14 -14 25 -32
25 -39 0 -7 9 -24 19 -38 17 -21 20 -68 4 -68 -20 0 -48 29 -64 65 -25 55 -33
61 -59 35 -24 -24 -24 -30 -6 -55 10 -14 11 -25 3 -42 -12 -28 -19 -29 -41 -4
-15 17 -21 52 -17 99 2 23 61 72 87 72 13 0 35 -11 49 -25z m4043 14 c74 -26
92 -133 29 -174 -23 -14 -28 -14 -76 5 -29 11 -57 18 -62 14 -6 -3 -17 2 -25
12 -14 18 -15 18 -9 -3 7 -27 -32 -54 -46 -32 -18 28 -10 49 21 56 17 3 33 10
36 14 8 14 67 10 88 -6 23 -17 55 -20 57 -5 6 49 3 55 -28 64 -31 10 -44 29
-36 54 6 15 12 15 51 1z m-3915 -150 c-8 -30 -26 -39 -47 -23 -16 12 -18 18
-8 39 10 22 14 23 36 14 16 -8 22 -17 19 -30z m-223 -99 c5 -9 10 -38 11 -65
3 -53 -1 -54 59 25 21 26 30 31 48 26 12 -4 22 -11 22 -15 0 -5 -27 -43 -60
-84 -53 -66 -64 -75 -83 -68 -18 7 -24 21 -34 82 -18 113 -17 128 7 122 11 -3
25 -13 30 -23z m4207 -22 c-7 -50 -26 -151 -30 -153 -1 -2 -12 -5 -23 -9 -18
-6 -30 4 -70 61 -68 93 -68 94 -53 104 26 16 38 9 71 -41 39 -60 44 -58 47 14
1 37 22 66 48 66 12 0 14 -9 10 -42z m163 -746 c0 -27 -22 -53 -48 -55 -12 0
-22 -4 -22 -7 0 -3 -3 -28 -6 -56 -6 -49 -5 -52 20 -58 21 -5 26 -12 26 -36 0
-16 -4 -31 -8 -34 -5 -3 -42 14 -83 37 -41 23 -95 53 -121 66 -40 20 -48 29
-48 52 0 32 12 41 85 58 28 7 57 15 65 17 8 2 38 10 65 18 67 19 75 19 75 -2z
m-4278 -47 c6 -30 0 -35 -44 -39 -144 -14 -168 -23 -168 -62 0 -32 26 -55 58
-50 15 3 54 8 87 11 33 4 64 8 69 9 11 1 27 -52 18 -58 -9 -5 -89 -16 -164
-22 -48 -4 -60 -1 -83 18 -43 38 -51 134 -13 171 18 18 42 26 101 33 29 4 53
7 54 8 1 1 20 3 41 4 35 2 40 0 44 -23z m4113 -200 c65 -14 120 -27 121 -28 1
-1 0 -15 -3 -30 -6 -30 1 -29 -92 -11 -27 5 -29 3 -36 -41 -3 -26 -5 -48 -3
-50 3 -3 47 -12 73 -14 27 -3 36 -18 26 -43 -9 -24 -12 -25 -56 -17 -26 5 -66
14 -89 20 -22 6 -54 13 -71 16 -48 6 -52 10 -52 37 0 29 17 35 67 24 42 -9 47
-5 55 50 5 36 3 42 -12 43 -31 1 -67 9 -75 17 -10 10 2 52 16 52 6 0 65 -12
131 -25z m-4081 -31 c8 -28 6 -31 -78 -117 -46 -47 -47 -49 -20 -42 38 10 43
10 88 20 28 6 40 4 47 -6 19 -30 7 -44 -46 -55 -11 -2 -56 -13 -100 -25 -107
-28 -107 -28 -115 2 -6 21 -2 32 19 55 15 16 44 48 64 70 l37 42 -71 -21 c-70
-20 -72 -20 -85 -2 -19 26 -14 37 22 47 75 22 210 57 220 57 7 1 15 -11 18
-25z m3956 -211 c0 -25 -11 -39 -36 -47 -26 -8 -37 -51 -18 -67 10 -8 20 -1
43 32 17 23 31 45 31 49 0 13 54 30 80 25 29 -5 70 -48 70 -73 0 -74 -50 -142
-105 -142 -19 0 -35 3 -35 8 1 27 15 52 30 52 42 0 67 63 36 89 -11 9 -21 2
-51 -39 -43 -59 -59 -69 -100 -64 -59 6 -80 65 -50 137 17 41 38 56 78 57 19
0 27 -5 27 -17z m-3890 -11 c0 -4 3 -16 6 -27 5 -19 -6 -24 -98 -54 -57 -18
-111 -37 -120 -42 -28 -14 -35 -11 -46 21 l-11 29 102 32 c56 18 105 35 109
38 11 10 58 12 58 3z m29 -89 c12 -27 11 -30 -58 -94 l-72 -67 58 6 c32 3 76
6 97 6 43 1 42 2 107 -119 17 -33 38 -69 45 -79 14 -21 3 -46 -21 -46 -12 0
-55 59 -68 93 -7 18 -24 22 -44 9 -9 -5 -4 -24 18 -66 24 -46 28 -61 17 -67
-25 -17 -38 -8 -63 41 -26 52 -39 59 -68 38 -16 -12 -15 -18 15 -75 29 -55 31
-64 18 -77 -8 -9 -20 -12 -25 -8 -19 13 -103 170 -96 180 3 5 47 31 96 57 50
26 94 51 98 55 5 4 -20 5 -55 2 -35 -3 -94 -6 -133 -6 -67 -1 -70 0 -79 26 -9
26 -4 33 85 121 52 51 99 94 105 95 6 1 16 -10 23 -25z m3745 -59 c22 -8 20
-27 -9 -84 -30 -59 -31 -66 -5 -73 16 -4 25 6 47 49 28 55 36 61 63 44 12 -8
11 -17 -13 -66 -26 -53 -27 -57 -10 -70 29 -22 36 -17 72 51 32 63 35 65 55
52 11 -8 20 -17 19 -21 -13 -33 -88 -176 -93 -176 -3 0 -58 26 -121 59 -90 46
-113 62 -111 77 4 18 81 164 87 164 2 0 10 -3 19 -6z m-110 -203 c5 -8 85 -57
161 -98 41 -23 50 -41 35 -68 -13 -24 -17 -25 -97 -23 -45 1 -85 -1 -88 -3 -3
-3 22 -21 55 -40 64 -36 70 -47 43 -71 -17 -14 -27 -10 -129 54 -106 66 -111
71 -100 93 14 29 21 31 124 29 45 0 82 0 82 1 0 1 -28 19 -62 40 -35 21 -65
40 -67 42 -6 5 21 53 30 53 4 0 10 -4 13 -9z m-3373 -205 c46 -71 50 -107 13
-139 -27 -23 -58 -29 -86 -15 -13 6 -20 -2 -34 -45 -25 -77 -33 -84 -57 -47
-17 27 -18 34 -6 63 8 17 14 35 14 39 0 3 3 10 8 14 10 11 9 52 -3 59 -5 3
-27 -6 -47 -20 -46 -31 -54 -31 -72 -3 -12 20 -11 24 10 38 12 8 61 43 108 76
98 70 93 71 152 -20z m3299 -85 c51 -17 105 -33 121 -36 33 -8 37 -25 10 -49
-14 -13 -24 -14 -43 -7 -29 11 -36 7 -67 -38 -23 -31 -23 -35 -8 -60 16 -28
14 -37 -14 -59 -15 -11 -21 -5 -53 50 -20 35 -42 72 -49 83 -59 94 -59 95 -42
121 20 31 33 30 145 -5z m-3172 -67 c44 -34 63 -78 50 -116 -6 -15 -16 -28
-23 -28 -22 0 -44 28 -38 50 6 23 -21 60 -44 60 -20 0 -16 -22 13 -78 30 -58
27 -102 -9 -127 -40 -28 -120 -12 -132 27 -4 10 -10 18 -15 18 -5 0 -14 15
-20 34 -9 28 -8 40 5 65 18 36 22 37 46 15 13 -12 16 -25 12 -45 -6 -34 18
-69 49 -69 24 0 23 25 -6 84 -26 53 -24 79 7 114 27 29 62 28 105 -4z m2995
-60 c15 -9 16 -12 1 -32 -9 -14 -26 -22 -43 -22 -42 0 -74 -36 -67 -74 7 -36
60 -86 93 -86 24 0 73 43 73 65 0 23 -20 28 -40 10 -21 -19 -50 -14 -50 9 0
15 66 86 80 86 4 0 23 -16 43 -36 38 -39 40 -56 13 -109 -22 -43 -84 -85 -124
-85 -50 0 -114 44 -141 97 -48 93 73 226 162 177z m-2851 -81 c7 -10 47 -45
88 -77 41 -33 79 -62 83 -66 9 -8 -13 -50 -26 -50 -4 0 -15 9 -24 20 -10 11
-22 20 -28 20 -9 0 -83 -84 -131 -148 -8 -12 -15 -12 -32 -3 -12 6 -22 17 -22
24 0 7 29 48 65 92 l64 80 -30 27 -30 28 -77 -81 -77 -80 -23 21 -23 22 69 72
c38 39 77 81 87 94 23 26 49 28 67 5z m2558 -122 c0 -5 6 -16 13 -23 22 -23
127 -176 127 -185 0 -5 -11 -15 -24 -22 -20 -11 -30 -10 -60 3 -20 9 -52 23
-72 32 -20 9 -38 13 -41 11 -5 -6 23 -52 49 -81 10 -11 18 -26 18 -33 0 -12
-38 -38 -45 -31 -11 10 -109 147 -123 171 -9 15 -20 27 -24 27 -17 0 -7 29 12
35 11 3 20 11 20 16 0 5 8 5 20 -1 11 -5 29 -14 40 -20 11 -5 42 -18 70 -29
46 -17 49 -18 40 -2 -5 10 -16 23 -24 31 -9 7 -16 19 -16 26 0 8 -3 14 -8 14
-4 0 -13 9 -20 21 -11 18 -11 23 5 35 21 16 43 18 43 5z m-2299 -80 c21 -17
22 -22 12 -57 -7 -22 -17 -68 -23 -104 -6 -36 -16 -82 -21 -102 -10 -38 -10
-38 -35 -21 -21 13 -25 23 -22 51 4 31 0 37 -36 59 -38 24 -40 25 -67 9 -22
-13 -33 -14 -49 -6 -11 6 -20 16 -20 23 0 13 208 166 226 167 7 0 22 -8 35
-19z m2059 -101 c3 -3 30 -25 60 -50 30 -25 72 -61 94 -81 l38 -36 -31 -13
c-29 -11 -34 -11 -54 8 l-22 20 -40 -22 c-33 -19 -41 -29 -45 -61 -5 -36 -8
-39 -62 -58 l-57 -21 -53 42 -53 42 -11 -28 c-10 -21 -9 -33 3 -55 17 -34 3
-60 -30 -55 -15 2 -30 27 -59 103 -22 55 -44 105 -49 111 -10 12 8 38 33 47
12 4 20 -4 32 -33 8 -21 19 -41 24 -44 4 -2 19 24 32 59 20 53 30 66 54 75 16
5 31 10 32 10 9 0 3 -29 -10 -56 -29 -59 -30 -81 -3 -96 14 -7 46 -28 72 -47
l47 -33 -6 63 c-4 35 -8 75 -11 89 -2 14 -7 46 -10 72 -5 44 -3 48 23 62 26
14 37 11 62 -14z m-1863 -3 c17 -9 39 -27 47 -39 17 -23 22 -73 8 -82 -14 -8
-57 22 -57 40 0 24 -50 53 -65 38 -8 -8 0 -22 28 -50 65 -66 73 -105 30 -151
-56 -60 -193 8 -186 91 2 16 8 30 14 33 19 7 56 -17 51 -32 -9 -21 22 -55 49
-55 38 0 40 26 4 61 -49 50 -61 72 -54 106 6 33 46 62 78 59 12 -2 35 -10 53
-19z m274 -113 c76 -30 90 -43 92 -78 2 -30 17 -36 17 -7 0 45 6 48 73 35 52
-11 99 -19 128 -23 3 -1 4 -13 1 -27 -4 -25 -7 -25 -56 -19 -28 3 -60 7 -71 8
-14 1 -21 -5 -23 -20 -3 -22 2 -24 88 -38 43 -7 43 -7 31 -38 -9 -23 -14 -25
-34 -18 -13 5 -41 11 -62 12 -37 4 -40 2 -42 -23 -2 -32 0 -34 51 -42 85 -14
104 -26 86 -56 -6 -10 -20 -10 -71 -1 -35 7 -80 15 -99 18 -19 3 -37 7 -38 8
-3 3 10 97 24 170 6 32 -2 29 -20 -7 -17 -33 -59 -43 -111 -25 l-44 14 -14
-41 c-14 -41 -38 -55 -65 -38 -9 7 -8 21 9 68 11 32 22 64 23 69 1 6 4 15 7
20 3 6 12 31 19 58 7 26 18 47 25 47 6 0 40 -12 76 -26z m1204 -46 c3 -18 10
-42 15 -53 5 -11 18 -54 29 -95 16 -57 18 -76 8 -82 -19 -12 -47 -9 -51 5 -2
6 -15 48 -29 92 -45 146 -46 165 -2 165 18 0 25 -7 30 -32z m-95 -33 c22 -20
43 -77 45 -120 2 -59 -36 -111 -89 -121 -53 -10 -82 -16 -98 -20 -18 -5 -30
26 -44 116 -3 25 -8 54 -10 65 -14 83 -14 85 9 90 105 24 152 22 187 -10z
m-672 -93 c23 -48 42 -85 43 -82 0 3 2 34 5 70 3 36 7 71 9 78 6 15 61 12 58
-3 0 -5 -4 -44 -8 -85 -8 -98 -16 -163 -21 -172 -5 -8 -44 -2 -56 10 -4 4 -25
44 -47 87 -28 58 -38 72 -38 53 0 -15 -4 -52 -8 -83 -6 -54 -8 -56 -33 -53
-25 3 -27 6 -25 48 1 40 12 164 17 198 3 19 25 30 45 25 10 -2 36 -43 59 -91z
m436 53 c3 -16 10 -64 16 -105 6 -41 13 -87 15 -102 5 -25 3 -28 -24 -28 -37
0 -39 4 -45 71 -3 30 -8 65 -11 79 -3 14 -8 46 -11 72 -5 43 -3 47 18 50 29 5
36 0 42 -37z m-119 3 c40 -27 52 -59 49 -125 -5 -95 -36 -123 -143 -127 -39
-2 -74 1 -77 6 -8 12 -14 250 -8 260 3 5 37 8 76 8 57 0 78 -4 103 -22z"/>
<path d="M2918 4666 c-20 -15 -38 -58 -38 -92 0 -55 78 -85 115 -44 10 11 20
41 23 69 4 42 1 50 -19 65 -28 19 -58 20 -81 2z"/>
<path d="M3202 4576 c-10 -21 -8 -25 16 -35 54 -21 82 -17 82 10 0 13 -11 25
-35 35 -46 19 -50 18 -63 -10z"/>
<path d="M2340 4418 c-66 -5 -186 -23 -230 -33 -3 -1 -25 -5 -50 -9 -88 -16
-267 -79 -390 -138 -69 -33 -126 -64 -128 -69 -2 -5 -9 -9 -16 -9 -15 0 -176
-110 -243 -165 -268 -224 -458 -488 -583 -813 -34 -88 -86 -289 -100 -392 -29
-206 -21 -469 20 -655 11 -49 23 -101 26 -115 10 -46 76 -235 94 -270 10 -19
35 -69 55 -110 44 -89 167 -275 227 -344 130 -150 262 -268 403 -363 197 -132
447 -238 670 -282 153 -30 216 -36 395 -36 169 0 223 4 375 31 166 29 392 113
562 209 67 38 127 79 131 88 2 4 8 7 14 7 22 0 184 136 286 240 202 205 358
468 453 765 11 33 21 71 22 85 2 14 6 30 9 35 3 6 9 28 13 50 5 22 9 42 10 45
1 3 5 34 9 70 5 36 10 74 13 85 6 31 6 303 -1 375 -30 316 -133 603 -315 878
-81 122 -140 192 -251 301 -78 77 -243 211 -259 211 -6 0 -11 3 -11 8 0 12
-121 81 -258 147 -276 134 -638 200 -952 173z m311 -32 c113 -9 157 -15 229
-33 36 -8 70 -16 75 -17 54 -12 117 -33 230 -76 35 -13 170 -75 175 -80 3 -3
35 -21 73 -40 37 -19 67 -38 67 -42 0 -4 5 -8 10 -8 9 0 102 -65 136 -95 7 -5
31 -26 55 -45 56 -44 187 -177 236 -238 21 -26 41 -48 46 -50 4 -2 7 -10 7
-17 0 -7 4 -15 8 -17 13 -5 117 -168 158 -248 22 -41 44 -78 49 -82 6 -4 6 -8
1 -8 -5 0 -4 -6 2 -12 6 -7 11 -16 11 -20 3 -14 12 -43 20 -58 10 -18 70 -209
77 -242 2 -13 7 -36 10 -53 4 -16 8 -39 9 -50 2 -11 4 -20 5 -20 1 0 3 -13 5
-30 1 -16 6 -55 10 -85 17 -122 8 -410 -14 -487 -5 -17 -7 -33 -5 -36 4 -4
-32 -184 -43 -207 -8 -19 -8 -19 -18 -55 -4 -16 -23 -65 -41 -108 -18 -42 -30
-77 -27 -77 3 0 1 -6 -5 -12 -5 -7 -31 -53 -57 -103 -26 -49 -62 -111 -81
-138 -19 -26 -34 -52 -34 -57 0 -6 -4 -10 -8 -10 -4 0 -16 -13 -25 -30 -10
-16 -23 -35 -30 -42 -7 -7 -34 -39 -60 -71 -125 -148 -310 -299 -495 -404 -51
-29 -95 -53 -97 -53 -2 0 -36 -15 -77 -34 -67 -30 -106 -46 -133 -52 -5 -1
-30 -10 -55 -19 -39 -14 -182 -49 -245 -60 -11 -2 -36 -7 -55 -10 -19 -4 -127
-9 -240 -10 -169 -3 -223 0 -309 15 -58 11 -108 17 -112 14 -4 -2 -10 0 -13 5
-3 5 -23 12 -43 16 -65 12 -280 88 -353 124 -149 75 -283 161 -386 246 -90 74
-238 228 -301 313 -16 20 -34 43 -40 50 -7 7 -13 17 -13 22 0 5 -6 15 -13 22
-31 31 -187 326 -187 352 0 4 -6 22 -14 39 -13 27 -45 130 -52 162 -1 6 -6 28
-12 50 -6 22 -13 56 -16 75 -3 19 -8 46 -11 60 -3 14 -7 46 -9 72 -2 26 -6 50
-9 55 -7 12 -1 359 7 413 4 25 14 83 23 130 9 47 17 92 17 100 1 9 5 20 8 25
3 6 11 30 17 55 18 69 86 245 101 260 3 3 20 36 39 75 19 38 59 105 88 149 29
43 53 82 53 87 0 4 3 9 8 11 4 2 27 28 51 58 25 30 70 81 101 112 31 32 55 60
52 63 -3 3 2 5 11 5 8 0 19 9 22 20 3 11 12 20 20 20 7 0 15 3 17 8 4 10 116
100 150 120 15 9 28 20 28 24 0 4 5 8 10 8 6 0 29 14 52 30 22 17 47 30 54 30
7 0 14 3 16 8 4 10 178 95 258 126 56 21 164 56 195 62 6 1 30 7 55 14 42 12
61 15 135 24 17 2 30 5 30 5 0 1 43 5 95 8 52 3 96 6 97 7 3 3 150 -3 224 -8z"/>
<path d="M2289 4366 c-3 -3 -36 -8 -129 -20 -39 -5 -188 -45 -255 -67 -281
-96 -507 -234 -715 -438 -215 -210 -368 -454 -459 -728 -74 -221 -95 -353 -95
-593 -1 -312 52 -542 190 -828 46 -95 160 -278 198 -318 6 -7 27 -31 46 -55
135 -167 368 -352 575 -457 166 -85 373 -153 535 -176 165 -25 221 -28 365
-23 386 13 717 125 1032 349 82 58 274 240 353 333 73 87 230 338 230 369 0 5
6 17 13 25 23 27 116 298 132 386 12 59 27 167 33 220 11 113 3 396 -13 455
-2 8 -7 31 -10 50 -3 19 -10 53 -16 75 -5 22 -12 49 -14 61 -20 92 -103 301
-163 414 -106 198 -312 445 -470 563 -31 23 -59 44 -62 48 -3 3 -32 24 -65 46
-223 150 -461 243 -765 299 -40 7 -464 17 -471 10z"/>
<path d="M3759 4230 c-24 -20 -24 -20 -4 -35 21 -16 26 -12 39 33 9 27 -4 28
-35 2z"/>
<path d="M4603 2288 c-18 -5 -33 -10 -33 -13 0 -3 59 -35 65 -35 2 0 5 9 8 19
7 30 -5 39 -40 29z"/>
<path d="M786 1297 c-18 -13 -18 -15 -1 -41 25 -38 50 -49 66 -30 10 12 10 19
1 32 -7 10 -15 25 -18 35 -7 20 -24 22 -48 4z"/>
<path d="M4110 1179 c0 -6 8 -21 19 -34 13 -18 21 -21 30 -12 19 19 12 35 -19
46 -21 7 -30 7 -30 0z"/>
<path d="M1326 739 c-31 -24 -33 -35 -7 -48 16 -9 20 -5 29 29 5 22 9 40 7 40
-1 0 -14 -9 -29 -21z"/>
<path d="M3455 626 c6 -48 5 -47 33 -32 l22 12 -30 29 -30 29 5 -38z"/>
<path d="M1836 552 c-3 -5 -7 -20 -10 -34 -4 -22 0 -27 25 -32 61 -12 83 31
29 59 -34 17 -37 18 -44 7z"/>
<path d="M2875 492 c-22 -8 -23 -12 -10 -92 5 -30 8 -59 7 -64 -4 -13 81 3 91
17 15 22 -1 111 -24 130 -22 18 -31 19 -64 9z"/>
<path d="M2519 449 c-1 -17 -1 -105 0 -136 1 -19 7 -23 35 -23 19 0 42 7 50
16 19 19 22 103 3 127 -16 23 -87 35 -88 16z"/>
</g>
</svg>
